<?xml version="1.0" standalone="no"?>
<!DOCTYPE svg PUBLIC "-//W3C//DTD SVG 20010904//EN"
 "http://www.w3.org/TR/2001/REC-SVG-20010904/DTD/svg10.dtd">
<svg version="1.0" xmlns="http://www.w3.org/2000/svg"
 width="260.000000pt" height="260.000000pt" viewBox="0 0 260.000000 260.000000"
 preserveAspectRatio="xMidYMid meet">
<metadata>
Created by potrace 1.14, written by Peter Selinger 2001-2017
</metadata>
<g transform="translate(0.000000,260.000000) scale(0.100000,-0.100000)"
fill="#000000" stroke="none">
<path d="M1210 1830 c-201 -43 -312 -230 -230 -390 42 -80 121 -131 300 -191
203 -68 252 -100 266 -175 24 -129 -80 -213 -252 -202 -125 8 -219 76 -231
167 l-6 41 -68 0 c-67 0 -69 -1 -69 -25 0 -88 88 -202 193 -251 167 -76 411
-45 511 66 45 50 71 134 61 198 -20 135 -103 201 -362 286 -199 66 -264 143
-218 261 28 75 100 115 204 115 76 0 125 -15 167 -52 40 -36 59 -68 68 -120
l7 -38 64 0 65 0 0 38 c0 92 -98 211 -208 252 -64 24 -194 34 -262 20z"/>
</g>
</svg>
